<svg width="32" height="32" viewBox="0 0 32 32" fill="none" xmlns="http://www.w3.org/2000/svg">
  <defs>
    <linearGradient id="faviconGradient" x1="0%" y1="0%" x2="100%" y2="100%">
      <stop offset="0%" style="stop-color:#40e0d0;stop-opacity:1" />
      <stop offset="100%" style="stop-color:#7fffd4;stop-opacity:1" />
    </linearGradient>
  </defs>
  
  <!-- Background with rounded corners -->
  <rect x="2" y="2" width="28" height="28" rx="6" fill="url(#faviconGradient)"/>
  
  <!-- Exact Lucide Brain icon -->
  <g transform="translate(6, 6) scale(0.83)">
    <path d="M12 5a3 3 0 0 0-3 3 3 3 0 0 0-3 3c0 2 1 3 1 3s1 1 1 3v3a1 1 0 0 0 1 1h3" stroke="white" stroke-width="2.5" stroke-linecap="round" stroke-linejoin="round" fill="none"/>
    <path d="m12 5a3 3 0 0 1 3 3 3 3 0 0 1 3 3c0 2-1 3-1 3s-1 1-1 3v3a1 1 0 0 1-1 1h-3" stroke="white" stroke-width="2.5" stroke-linecap="round" stroke-linejoin="round" fill="none"/>
    <path d="M9 20v-1a2 2 0 0 1 2-2h2a2 2 0 0 1 2 2v1" stroke="white" stroke-width="2.5" stroke-linecap="round" stroke-linejoin="round" fill="none"/>
  </g>
</svg>